<svg xmlns="http://www.w3.org/2000/svg" xmlns:xlink="http://www.w3.org/1999/xlink" contentStyleType="text/css" data-diagram-type="CLASS" height="684px" preserveAspectRatio="none" style="width:1227px;height:684px;background:#FFFFFF;" version="1.1" viewBox="0 0 1227 684" width="1227px" zoomAndPan="magnify"><title>Dise&#241;o Estructural - Gesti&#243;n de Veh&#237;culos</title><defs/><g><g class="title" data-source-line="2"><text fill="#000000" font-family="sans-serif" font-size="14" font-weight="bold" lengthAdjust="spacing" textLength="327.6055" x="443.0103" y="22.9951">Dise&#241;o Estructural - Gesti&#243;n de Veh&#237;culos</text></g><!--class NivelRiesgo--><g class="entity" data-entity="NivelRiesgo" data-source-line="10" data-uid="ent0002" id="entity_NivelRiesgo"><rect fill="#F1F1F1" height="88.8906" rx="2.5" ry="2.5" style="stroke:#181818;stroke-width:0.5;" width="114.127" x="445.54" y="44.2969"/><ellipse cx="460.54" cy="60.2969" fill="#EB937F" rx="11" ry="11" style="stroke:#181818;stroke-width:1;"/><path d="M464.6494,66.2969 L456.9306,66.2969 L456.9306,53.9063 L464.6494,53.9063 L464.6494,56.0625 L459.3838,56.0625 L459.3838,58.7344 L464.1494,58.7344 L464.1494,60.8906 L459.3838,60.8906 L459.3838,64.1406 L464.6494,64.1406 L464.6494,66.2969 Z " fill="#000000"/><text fill="#000000" font-family="sans-serif" font-size="14" lengthAdjust="spacing" textLength="82.127" x="474.54" y="65.1436">NivelRiesgo</text><line style="stroke:#181818;stroke-width:0.5;" x1="446.54" x2="558.667" y1="76.2969" y2="76.2969"/><text fill="#000000" font-family="sans-serif" font-size="14" lengthAdjust="spacing" textLength="34.3301" x="451.54" y="93.292">BAJO</text><text fill="#000000" font-family="sans-serif" font-size="14" lengthAdjust="spacing" textLength="46.8535" x="451.54" y="109.5889">MEDIO</text><text fill="#000000" font-family="sans-serif" font-size="14" lengthAdjust="spacing" textLength="36.9482" x="451.54" y="125.8857">ALTO</text></g><!--class Valorable--><g class="entity" data-entity="Valorable" data-source-line="17" data-uid="ent0003" id="entity_Valorable"><rect fill="#F1F1F1" height="56.2969" rx="2.5" ry="2.5" style="stroke:#181818;stroke-width:0.5;" width="238.3379" x="594.44" y="60.5969"/><ellipse cx="676.191" cy="76.5969" fill="#B4A7E5" rx="11" ry="11" style="stroke:#181818;stroke-width:1;"/><path d="M672.1129,72.3625 L672.1129,70.2062 L679.5035,70.2062 L679.5035,72.3625 L677.0347,72.3625 L677.0347,80.4406 L679.5035,80.4406 L679.5035,82.5969 L672.1129,82.5969 L672.1129,80.4406 L674.5816,80.4406 L674.5816,72.3625 L672.1129,72.3625 Z " fill="#000000"/><text fill="#000000" font-family="sans-serif" font-size="14" font-style="italic" lengthAdjust="spacing" textLength="66.3359" x="696.691" y="81.4436">Valorable</text><line style="stroke:#181818;stroke-width:0.5;" x1="595.44" x2="831.7779" y1="92.5969" y2="92.5969"/><text fill="#000000" font-family="sans-serif" font-size="14" lengthAdjust="spacing" textLength="226.3379" x="600.44" y="109.592">+calcularDepreciacion(): double</text></g><!--class Persona--><g class="entity" data-entity="Persona" data-source-line="22" data-uid="ent0004" id="entity_Persona"><rect fill="#F1F1F1" height="145.7813" rx="2.5" ry="2.5" style="stroke:#181818;stroke-width:0.5;" width="262.7217" x="212.24" y="398.9669"/><ellipse cx="311.2893" cy="414.9669" fill="#ADD1B2" rx="11" ry="11" style="stroke:#181818;stroke-width:1;"/><path d="M314.2581,420.6075 Q313.6799,420.9044 313.0393,421.045 Q312.3987,421.2012 311.6956,421.2012 Q309.1956,421.2012 307.8674,419.5606 Q306.5549,417.9044 306.5549,414.7794 Q306.5549,411.6544 307.8674,409.9981 Q309.1956,408.3419 311.6956,408.3419 Q312.3987,408.3419 313.0393,408.4981 Q313.6956,408.6544 314.2581,408.9512 L314.2581,411.67 Q313.6331,411.0919 313.0393,410.8262 Q312.4456,410.545 311.8206,410.545 Q310.4768,410.545 309.7893,411.6231 Q309.1018,412.6856 309.1018,414.7794 Q309.1018,416.8731 309.7893,417.9512 Q310.4768,419.0137 311.8206,419.0137 Q312.4456,419.0137 313.0393,418.7481 Q313.6331,418.4669 314.2581,417.8887 L314.2581,420.6075 Z " fill="#000000"/><text fill="#000000" font-family="sans-serif" font-size="14" lengthAdjust="spacing" textLength="56.123" x="331.7893" y="419.8136">Persona</text><line style="stroke:#181818;stroke-width:0.5;" x1="213.24" x2="473.9617" y1="430.9669" y2="430.9669"/><text fill="#000000" font-family="sans-serif" font-size="14" lengthAdjust="spacing" textLength="117.0107" x="218.24" y="447.962">+nombre: String</text><text fill="#000000" font-family="sans-serif" font-size="14" lengthAdjust="spacing" textLength="125.1729" x="218.24" y="464.2589">+apellidos: String</text><text fill="#000000" font-family="sans-serif" font-size="14" lengthAdjust="spacing" textLength="81.3818" x="218.24" y="480.5557">-DNI: String</text><text fill="#000000" font-family="sans-serif" font-size="14" lengthAdjust="spacing" textLength="148.7637" x="218.24" y="496.8526">+anioNacimiento: int</text><text fill="#000000" font-family="sans-serif" font-size="14" lengthAdjust="spacing" textLength="250.7217" x="218.24" y="513.1495">+fechaCaducidadCarnet: LocalDate</text><line style="stroke:#181818;stroke-width:1;" x1="213.24" x2="473.9617" y1="520.4513" y2="520.4513"/><text fill="#000000" font-family="sans-serif" font-size="14" lengthAdjust="spacing" textLength="161.041" x="218.24" y="537.4464">+validarDNI(): boolean</text></g><!--class Vehiculo--><g class="entity" data-entity="Vehiculo" data-source-line="33" data-uid="ent0005" id="entity_Vehiculo"><rect fill="#F1F1F1" height="145.7813" rx="2.5" ry="2.5" style="stroke:#181818;stroke-width:0.5;" width="300.3672" x="563.42" y="193.1869"/><ellipse cx="679.3643" cy="209.1869" fill="#A9DCDF" rx="11" ry="11" style="stroke:#181818;stroke-width:1;"/><path d="M679.4737,204.5306 L678.3175,209.6087 L680.6456,209.6087 L679.4737,204.5306 Z M677.9893,202.2962 L680.9737,202.2962 L684.3331,214.6869 L681.88,214.6869 L681.1143,211.6244 L677.8331,211.6244 L677.0831,214.6869 L674.6456,214.6869 L677.9893,202.2962 Z " fill="#000000"/><text fill="#000000" font-family="sans-serif" font-size="14" font-style="italic" lengthAdjust="spacing" textLength="59.9785" x="699.8643" y="214.0336">Vehiculo</text><line style="stroke:#181818;stroke-width:0.5;" x1="564.42" x2="862.7872" y1="225.1869" y2="225.1869"/><text fill="#000000" font-family="sans-serif" font-size="14" lengthAdjust="spacing" textLength="129.0693" x="569.42" y="242.182">+matricula: String</text><text fill="#000000" font-family="sans-serif" font-size="14" lengthAdjust="spacing" textLength="106.9277" x="569.42" y="258.4789">+marca: String</text><text fill="#000000" font-family="sans-serif" font-size="14" lengthAdjust="spacing" textLength="114.8369" x="569.42" y="274.7757">+modelo: String</text><text fill="#000000" font-family="sans-serif" font-size="14" lengthAdjust="spacing" textLength="147.6426" x="569.42" y="291.0726">#kilometraje: double</text><text fill="#000000" font-family="sans-serif" font-size="14" lengthAdjust="spacing" textLength="112.0205" x="569.42" y="307.3695">#precio: double</text><line style="stroke:#181818;stroke-width:1;" x1="564.42" x2="862.7872" y1="314.6712" y2="314.6712"/><text fill="#000000" font-family="sans-serif" font-size="14" font-style="italic" lengthAdjust="spacing" textLength="288.3672" x="569.42" y="331.6664">+calcularRiesgoConductor(): NivelRiesgo</text></g><!--class Coche--><g class="entity" data-entity="Coche" data-source-line="48" data-uid="ent0008" id="entity_Coche"><rect fill="#F1F1F1" height="72.5938" rx="2.5" ry="2.5" style="stroke:#181818;stroke-width:0.5;" width="174.4766" x="510.37" y="435.5669"/><ellipse cx="571.5961" cy="451.5669" fill="#ADD1B2" rx="11" ry="11" style="stroke:#181818;stroke-width:1;"/><path d="M574.5648,457.2075 Q573.9867,457.5044 573.3461,457.645 Q572.7054,457.8013 572.0023,457.8013 Q569.5023,457.8013 568.1742,456.1606 Q566.8617,454.5044 566.8617,451.3794 Q566.8617,448.2544 568.1742,446.5981 Q569.5023,444.9419 572.0023,444.9419 Q572.7054,444.9419 573.3461,445.0981 Q574.0023,445.2544 574.5648,445.5513 L574.5648,448.27 Q573.9398,447.6919 573.3461,447.4263 Q572.7523,447.145 572.1273,447.145 Q570.7836,447.145 570.0961,448.2231 Q569.4086,449.2856 569.4086,451.3794 Q569.4086,453.4731 570.0961,454.5513 Q570.7836,455.6138 572.1273,455.6138 Q572.7523,455.6138 573.3461,455.3481 Q573.9398,455.0669 574.5648,454.4888 L574.5648,457.2075 Z " fill="#000000"/><text fill="#000000" font-family="sans-serif" font-size="14" lengthAdjust="spacing" textLength="43.5244" x="592.0961" y="456.4136">Coche</text><line style="stroke:#181818;stroke-width:0.5;" x1="511.37" x2="683.8466" y1="467.5669" y2="467.5669"/><text fill="#000000" font-family="sans-serif" font-size="14" lengthAdjust="spacing" textLength="146.5146" x="516.37" y="484.562">+numeroPuertas: int</text><text fill="#000000" font-family="sans-serif" font-size="14" lengthAdjust="spacing" textLength="162.4766" x="516.37" y="500.8589">+tipoCarroceria: String</text></g><!--class Moto--><g class="entity" data-entity="Moto" data-source-line="53" data-uid="ent0010" id="entity_Moto"><rect fill="#F1F1F1" height="72.5938" rx="2.5" ry="2.5" style="stroke:#181818;stroke-width:0.5;" width="191.9766" x="734.62" y="435.5669"/><ellipse cx="809.0087" cy="451.5669" fill="#ADD1B2" rx="11" ry="11" style="stroke:#181818;stroke-width:1;"/><path d="M811.9774,457.2075 Q811.3993,457.5044 810.7587,457.645 Q810.118,457.8013 809.4149,457.8013 Q806.9149,457.8013 805.5868,456.1606 Q804.2743,454.5044 804.2743,451.3794 Q804.2743,448.2544 805.5868,446.5981 Q806.9149,444.9419 809.4149,444.9419 Q810.118,444.9419 810.7587,445.0981 Q811.4149,445.2544 811.9774,445.5513 L811.9774,448.27 Q811.3524,447.6919 810.7587,447.4263 Q810.1649,447.145 809.5399,447.145 Q808.1962,447.145 807.5087,448.2231 Q806.8212,449.2856 806.8212,451.3794 Q806.8212,453.4731 807.5087,454.5513 Q808.1962,455.6138 809.5399,455.6138 Q810.1649,455.6138 810.7587,455.3481 Q811.3524,455.0669 811.9774,454.4888 L811.9774,457.2075 Z " fill="#000000"/><text fill="#000000" font-family="sans-serif" font-size="14" lengthAdjust="spacing" textLength="34.6992" x="829.5087" y="456.4136">Moto</text><line style="stroke:#181818;stroke-width:0.5;" x1="735.62" x2="925.5966" y1="467.5669" y2="467.5669"/><text fill="#000000" font-family="sans-serif" font-size="14" lengthAdjust="spacing" textLength="108.0762" x="740.62" y="484.562">+cilindrada: int</text><text fill="#000000" font-family="sans-serif" font-size="14" lengthAdjust="spacing" textLength="179.9766" x="740.62" y="500.8589">+tieneCarenado: boolean</text></g><!--class Camion--><g class="entity" data-entity="Camion" data-source-line="58" data-uid="ent0012" id="entity_Camion"><rect fill="#F1F1F1" height="72.5938" rx="2.5" ry="2.5" style="stroke:#181818;stroke-width:0.5;" width="211.9375" x="961.64" y="435.5669"/><ellipse cx="1036.6986" cy="451.5669" fill="#ADD1B2" rx="11" ry="11" style="stroke:#181818;stroke-width:1;"/><path d="M1039.6673,457.2075 Q1039.0892,457.5044 1038.4486,457.645 Q1037.808,457.8013 1037.1048,457.8013 Q1034.6048,457.8013 1033.2767,456.1606 Q1031.9642,454.5044 1031.9642,451.3794 Q1031.9642,448.2544 1033.2767,446.5981 Q1034.6048,444.9419 1037.1048,444.9419 Q1037.808,444.9419 1038.4486,445.0981 Q1039.1048,445.2544 1039.6673,445.5513 L1039.6673,448.27 Q1039.0423,447.6919 1038.4486,447.4263 Q1037.8548,447.145 1037.2298,447.145 Q1035.8861,447.145 1035.1986,448.2231 Q1034.5111,449.2856 1034.5111,451.3794 Q1034.5111,453.4731 1035.1986,454.5513 Q1035.8861,455.6138 1037.2298,455.6138 Q1037.8548,455.6138 1038.4486,455.3481 Q1039.0423,455.0669 1039.6673,454.4888 L1039.6673,457.2075 Z " fill="#000000"/><text fill="#000000" font-family="sans-serif" font-size="14" lengthAdjust="spacing" textLength="53.3203" x="1057.1986" y="456.4136">Camion</text><line style="stroke:#181818;stroke-width:0.5;" x1="962.64" x2="1172.5775" y1="467.5669" y2="467.5669"/><text fill="#000000" font-family="sans-serif" font-size="14" lengthAdjust="spacing" textLength="199.9375" x="967.64" y="484.562">+capacidadCargaKg: double</text><text fill="#000000" font-family="sans-serif" font-size="14" lengthAdjust="spacing" textLength="122.1104" x="967.64" y="500.8589">+numeroEjes: int</text></g><!--class Sedan--><g class="entity" data-entity="Sedan" data-source-line="64" data-uid="ent0014" id="entity_Sedan"><rect fill="#F1F1F1" height="56.2969" rx="2.5" ry="2.5" style="stroke:#181818;stroke-width:0.5;" width="223.21" x="7" y="612.8969"/><ellipse cx="92.4355" cy="628.8969" fill="#ADD1B2" rx="11" ry="11" style="stroke:#181818;stroke-width:1;"/><path d="M95.4043,634.5375 Q94.8262,634.8344 94.1855,634.975 Q93.5449,635.1312 92.8418,635.1312 Q90.3418,635.1312 89.0137,633.4906 Q87.7012,631.8344 87.7012,628.7094 Q87.7012,625.5844 89.0137,623.9281 Q90.3418,622.2719 92.8418,622.2719 Q93.5449,622.2719 94.1855,622.4281 Q94.8418,622.5844 95.4043,622.8812 L95.4043,625.6 Q94.7793,625.0219 94.1855,624.7562 Q93.5918,624.475 92.9668,624.475 Q91.623,624.475 90.9355,625.5531 Q90.248,626.6156 90.248,628.7094 Q90.248,630.8031 90.9355,631.8812 Q91.623,632.9437 92.9668,632.9437 Q93.5918,632.9437 94.1855,632.6781 Q94.7793,632.3969 95.4043,631.8187 L95.4043,634.5375 Z " fill="#000000"/><text fill="#000000" font-family="sans-serif" font-size="14" lengthAdjust="spacing" textLength="43.8389" x="112.9355" y="633.7436">Sedan</text><line style="stroke:#181818;stroke-width:0.5;" x1="8" x2="229.21" y1="644.8969" y2="644.8969"/><text fill="#000000" font-family="sans-serif" font-size="14" lengthAdjust="spacing" textLength="211.21" x="13" y="661.892">+capacidadMaleteroLitros: int</text></g><!--class SUV--><g class="entity" data-entity="SUV" data-source-line="67" data-uid="ent0016" id="entity_SUV"><rect fill="#F1F1F1" height="56.2969" rx="2.5" ry="2.5" style="stroke:#181818;stroke-width:0.5;" width="210.0576" x="265.58" y="612.8969"/><ellipse cx="352.0033" cy="628.8969" fill="#ADD1B2" rx="11" ry="11" style="stroke:#181818;stroke-width:1;"/><path d="M354.9721,634.5375 Q354.394,634.8344 353.7533,634.975 Q353.1127,635.1312 352.4096,635.1312 Q349.9096,635.1312 348.5815,633.4906 Q347.269,631.8344 347.269,628.7094 Q347.269,625.5844 348.5815,623.9281 Q349.9096,622.2719 352.4096,622.2719 Q353.1127,622.2719 353.7533,622.4281 Q354.4096,622.5844 354.9721,622.8812 L354.9721,625.6 Q354.3471,625.0219 353.7533,624.7562 Q353.1596,624.475 352.5346,624.475 Q351.1908,624.475 350.5033,625.5531 Q349.8158,626.6156 349.8158,628.7094 Q349.8158,630.8031 350.5033,631.8812 Q351.1908,632.9437 352.5346,632.9437 Q353.1596,632.9437 353.7533,632.6781 Q354.3471,632.3969 354.9721,631.8187 L354.9721,634.5375 Z " fill="#000000"/><text fill="#000000" font-family="sans-serif" font-size="14" lengthAdjust="spacing" textLength="28.7109" x="372.5033" y="633.7436">SUV</text><line style="stroke:#181818;stroke-width:0.5;" x1="266.58" x2="474.6376" y1="644.8969" y2="644.8969"/><text fill="#000000" font-family="sans-serif" font-size="14" lengthAdjust="spacing" textLength="198.0576" x="271.58" y="661.892">+tieneTraccion4x4: boolean</text></g><!--class Deportivo--><g class="entity" data-entity="Deportivo" data-source-line="70" data-uid="ent0018" id="entity_Deportivo"><rect fill="#F1F1F1" height="72.5938" rx="2.5" ry="2.5" style="stroke:#181818;stroke-width:0.5;" width="173.4922" x="510.86" y="604.7569"/><ellipse cx="558.9406" cy="620.7569" fill="#ADD1B2" rx="11" ry="11" style="stroke:#181818;stroke-width:1;"/><path d="M561.9093,626.3975 Q561.3312,626.6944 560.6906,626.835 Q560.0499,626.9912 559.3468,626.9912 Q556.8468,626.9912 555.5187,625.3506 Q554.2062,623.6944 554.2062,620.5694 Q554.2062,617.4444 555.5187,615.7881 Q556.8468,614.1319 559.3468,614.1319 Q560.0499,614.1319 560.6906,614.2881 Q561.3468,614.4444 561.9093,614.7412 L561.9093,617.46 Q561.2843,616.8819 560.6906,616.6162 Q560.0968,616.335 559.4718,616.335 Q558.1281,616.335 557.4406,617.4131 Q556.7531,618.4756 556.7531,620.5694 Q556.7531,622.6631 557.4406,623.7412 Q558.1281,624.8037 559.4718,624.8037 Q560.0968,624.8037 560.6906,624.5381 Q561.2843,624.2569 561.9093,623.6787 L561.9093,626.3975 Z " fill="#000000"/><text fill="#000000" font-family="sans-serif" font-size="14" lengthAdjust="spacing" textLength="68.8311" x="579.4406" y="625.6036">Deportivo</text><line style="stroke:#181818;stroke-width:0.5;" x1="511.86" x2="683.3522" y1="636.7569" y2="636.7569"/><text fill="#000000" font-family="sans-serif" font-size="14" lengthAdjust="spacing" textLength="119.0957" x="516.86" y="653.752">+potenciaCV: int</text><text fill="#000000" font-family="sans-serif" font-size="14" lengthAdjust="spacing" textLength="161.4922" x="516.86" y="670.0489">+velocidadMaxima: int</text></g><!--class Scooter--><g class="entity" data-entity="Scooter" data-source-line="76" data-uid="ent0020" id="entity_Scooter"><rect fill="#F1F1F1" height="56.2969" rx="2.5" ry="2.5" style="stroke:#181818;stroke-width:0.5;" width="251.5654" x="719.82" y="612.8969"/><ellipse cx="814.5661" cy="628.8969" fill="#ADD1B2" rx="11" ry="11" style="stroke:#181818;stroke-width:1;"/><path d="M817.5348,634.5375 Q816.9567,634.8344 816.3161,634.975 Q815.6755,635.1312 814.9723,635.1312 Q812.4723,635.1312 811.1442,633.4906 Q809.8317,631.8344 809.8317,628.7094 Q809.8317,625.5844 811.1442,623.9281 Q812.4723,622.2719 814.9723,622.2719 Q815.6755,622.2719 816.3161,622.4281 Q816.9723,622.5844 817.5348,622.8812 L817.5348,625.6 Q816.9098,625.0219 816.3161,624.7562 Q815.7223,624.475 815.0973,624.475 Q813.7536,624.475 813.0661,625.5531 Q812.3786,626.6156 812.3786,628.7094 Q812.3786,630.8031 813.0661,631.8812 Q813.7536,632.9437 815.0973,632.9437 Q815.7223,632.9437 816.3161,632.6781 Q816.9098,632.3969 817.5348,631.8187 L817.5348,634.5375 Z " fill="#000000"/><text fill="#000000" font-family="sans-serif" font-size="14" lengthAdjust="spacing" textLength="53.5732" x="835.0661" y="633.7436">Scooter</text><line style="stroke:#181818;stroke-width:0.5;" x1="720.82" x2="970.3854" y1="644.8969" y2="644.8969"/><text fill="#000000" font-family="sans-serif" font-size="14" lengthAdjust="spacing" textLength="239.5654" x="725.82" y="661.892">+tieneHuecoBajoAsiento: boolean</text></g><!--class Deportiva--><g class="entity" data-entity="Deportiva" data-source-line="79" data-uid="ent0022" id="entity_Deportiva"><rect fill="#F1F1F1" height="56.2969" rx="2.5" ry="2.5" style="stroke:#181818;stroke-width:0.5;" width="214.0361" x="1006.59" y="612.8969"/><ellipse cx="1074.9357" cy="628.8969" fill="#ADD1B2" rx="11" ry="11" style="stroke:#181818;stroke-width:1;"/><path d="M1077.9045,634.5375 Q1077.3263,634.8344 1076.6857,634.975 Q1076.0451,635.1312 1075.342,635.1312 Q1072.842,635.1312 1071.5138,633.4906 Q1070.2013,631.8344 1070.2013,628.7094 Q1070.2013,625.5844 1071.5138,623.9281 Q1072.842,622.2719 1075.342,622.2719 Q1076.0451,622.2719 1076.6857,622.4281 Q1077.342,622.5844 1077.9045,622.8812 L1077.9045,625.6 Q1077.2795,625.0219 1076.6857,624.7562 Q1076.092,624.475 1075.467,624.475 Q1074.1232,624.475 1073.4357,625.5531 Q1072.7482,626.6156 1072.7482,628.7094 Q1072.7482,630.8031 1073.4357,631.8812 Q1074.1232,632.9437 1075.467,632.9437 Q1076.092,632.9437 1076.6857,632.6781 Q1077.2795,632.3969 1077.9045,631.8187 L1077.9045,634.5375 Z " fill="#000000"/><text fill="#000000" font-family="sans-serif" font-size="14" lengthAdjust="spacing" textLength="68.8447" x="1095.4357" y="633.7436">Deportiva</text><line style="stroke:#181818;stroke-width:0.5;" x1="1007.59" x2="1219.6261" y1="644.8969" y2="644.8969"/><text fill="#000000" font-family="sans-serif" font-size="14" lengthAdjust="spacing" textLength="202.0361" x="1012.59" y="661.892">+posicionConduccion: String</text></g><!--reverse link Vehiculo to Persona--><g class="link" data-entity-1="Vehiculo" data-entity-2="Persona" data-source-line="44" data-uid="lnk6" id="link_Vehiculo_Persona"><path codeLine="44" d="M603.9,351.0569 C603.9,389.7369 603.9,417.3469 603.9,417.3469 C603.9,417.3469 539.84,417.3469 475.28,417.3469" fill="none" id="Vehiculo-backto-Persona" style="stroke:#181818;stroke-width:1;"/><polygon fill="none" points="603.9,339.0569,599.9,345.0569,603.9,351.0569,607.9,345.0569,603.9,339.0569" style="stroke:#181818;stroke-width:1;"/><polygon fill="#000000" points="579.2856,411.2039,588.672,409.6725,585.9792,404.4477,579.2856,411.2039" style="stroke:#000000;stroke-width:1;"/><text fill="#000000" font-family="sans-serif" font-size="13" lengthAdjust="spacing" textLength="129.0732" x="592.73" y="413.4138">tiene un propietario</text><text fill="#000000" font-family="sans-serif" font-size="13" lengthAdjust="spacing" textLength="8.271" x="584.7206" y="359.0525">1</text><text fill="#000000" font-family="sans-serif" font-size="13" lengthAdjust="spacing" textLength="24.8066" x="483.1595" y="411.0262">0..1</text></g><!--reverse link Valorable to Vehiculo--><g class="link" data-entity-1="Valorable" data-entity-2="Vehiculo" data-source-line="45" data-uid="lnk7" id="link_Valorable_Vehiculo"><path codeLine="45" d="M713.6,135.2369 C713.6,155.6969 713.6,166.2569 713.6,192.8969" fill="none" id="Valorable-backto-Vehiculo" style="stroke:#181818;stroke-width:1;stroke-dasharray:7.0,7.0;"/><polygon fill="none" points="713.6,117.2369,707.6,135.2369,719.6,135.2369,713.6,117.2369" style="stroke:#181818;stroke-width:1;"/></g><!--reverse link Vehiculo to Coche--><g class="link" data-entity-1="Vehiculo" data-entity-2="Coche" data-source-line="49" data-uid="lnk9" id="link_Vehiculo_Coche"><path d="M644.37,357.2069 C644.37,389.7869 644.37,408.7169 644.37,435.3269" fill="none" id="Vehiculo-backto-Coche" style="stroke:#181818;stroke-width:1;"/><polygon fill="none" points="644.37,339.2069,638.37,357.2069,650.37,357.2069,644.37,339.2069" style="stroke:#181818;stroke-width:1;"/></g><!--reverse link Vehiculo to Moto--><g class="link" data-entity-1="Vehiculo" data-entity-2="Moto" data-source-line="54" data-uid="lnk11" id="link_Vehiculo_Moto"><path d="M799.2,357.2069 C799.2,389.7869 799.2,408.7169 799.2,435.3269" fill="none" id="Vehiculo-backto-Moto" style="stroke:#181818;stroke-width:1;"/><polygon fill="none" points="799.2,339.2069,793.2,357.2069,805.2,357.2069,799.2,339.2069" style="stroke:#181818;stroke-width:1;"/></g><!--reverse link Vehiculo to Camion--><g class="link" data-entity-1="Vehiculo" data-entity-2="Camion" data-source-line="59" data-uid="lnk13" id="link_Vehiculo_Camion"><path d="M882.25,266.3469 C978.6,266.3469 1067.6,266.3469 1067.6,266.3469 C1067.6,266.3469 1067.6,376.0069 1067.6,435.1169" fill="none" id="Vehiculo-backto-Camion" style="stroke:#181818;stroke-width:1;"/><polygon fill="none" points="864.25,266.3469,882.25,272.3469,882.25,260.3469,864.25,266.3469" style="stroke:#181818;stroke-width:1;"/></g><!--reverse link Coche to Sedan--><g class="link" data-entity-1="Coche" data-entity-2="Sedan" data-source-line="65" data-uid="lnk15" id="link_Coche_Sedan"><path d="M568.69,526.6369 C568.69,556.3869 568.69,575.3469 568.69,575.3469 C568.69,575.3469 221.23,575.3469 221.23,575.3469 C221.23,575.3469 221.23,594.7169 221.23,612.4269" fill="none" id="Coche-backto-Sedan" style="stroke:#181818;stroke-width:1;"/><polygon fill="none" points="568.69,508.6369,562.69,526.6369,574.69,526.6369,568.69,508.6369" style="stroke:#181818;stroke-width:1;"/></g><!--reverse link Coche to SUV--><g class="link" data-entity-1="Coche" data-entity-2="SUV" data-source-line="68" data-uid="lnk17" id="link_Coche_SUV"><path d="M492.27,472.3469 C492.27,472.3469 493,641.3469 493,641.3469 C493,641.3469 486.28,641.3469 475.98,641.3469" fill="none" id="Coche-backto-SUV" style="stroke:#181818;stroke-width:1;"/><polygon fill="none" points="510.27,472.3469,492.27,466.3469,492.27,478.3469,510.27,472.3469" style="stroke:#181818;stroke-width:1;"/></g><!--reverse link Coche to Deportivo--><g class="link" data-entity-1="Coche" data-entity-2="Deportivo" data-source-line="71" data-uid="lnk19" id="link_Coche_Deportivo"><path d="M626.52,526.5769 C626.52,554.9569 626.52,576.0469 626.52,604.4069" fill="none" id="Coche-backto-Deportivo" style="stroke:#181818;stroke-width:1;"/><polygon fill="none" points="626.52,508.5769,620.52,526.5769,632.52,526.5769,626.52,508.5769" style="stroke:#181818;stroke-width:1;"/></g><!--reverse link Moto to Scooter--><g class="link" data-entity-1="Moto" data-entity-2="Scooter" data-source-line="77" data-uid="lnk21" id="link_Moto_Scooter"><path d="M862.6,526.5769 C862.6,557.7669 862.6,583.9269 862.6,612.5169" fill="none" id="Moto-backto-Scooter" style="stroke:#181818;stroke-width:1;"/><polygon fill="none" points="862.6,508.5769,856.6,526.5769,868.6,526.5769,862.6,508.5769" style="stroke:#181818;stroke-width:1;"/></g><!--reverse link Moto to Deportiva--><g class="link" data-entity-1="Moto" data-entity-2="Deportiva" data-source-line="80" data-uid="lnk23" id="link_Moto_Deportiva"><path d="M798.61,526.5669 C798.61,536.8769 798.61,527.3469 798.61,527.3469 C798.61,527.3469 1090.08,527.3469 1090.08,527.3469 C1090.08,527.3469 1090.08,578.9769 1090.08,612.6469" fill="none" id="Moto-backto-Deportiva" style="stroke:#181818;stroke-width:1;"/><polygon fill="none" points="798.61,508.5669,792.61,526.5669,804.61,526.5669,798.61,508.5669" style="stroke:#181818;stroke-width:1;"/></g><!--SRC=[ZLJRJjj047tFLupI1wYg82hn55MLGeBQjDn4QDudwqaoiDwnrcl4fNmI3rK_8J_MMTkn3OMgBuazdiivPyxk3bnkda9X1HAoC65SUKon5pXOqjUSDhy4ZlBW2nCAZnO6y8Nom9lVJYjWJklDaz7olDVRWS5W06DnIrvfgYbpvfmNMhLxbXaMX_PzJEhbr-mor4bWBERvA0JFYoBGr8YRyJt1VYV5igDmbn683slfhLddKfg5EqWfNP1lHazeoOxD5jkHArAAECHH3hlnDQ_6apx2AT-GlM3ALm8FFO33qRSp_JivcapZ_-Zuygpt-4PhYp1rWVmIxyk6NBqO5GIjU5oeUB7d1p1eLHxq4yey6IxHxBuVGYA59lrhm5YL8JXNVgfREQNKgebK_Psa2qz3cAc2RbM6C2DhEP6y4zK1fzFdMOxbLE6aJ2x849H26L-IMUCOay9mWiaOlOe_X6DH8XCC57iDoiGRr25Ax7GQ-In4BA5h2LNm3-FFQA7-GHCGxk22x7OZaHBMdoeVH3jnT5DDBaN56-LxXZn5Rrv4HCqhdT0xk6OhAMdlAsh4Zl5o2z89rMmUjaWUcvLLtb0_gnP1V6JPyKpBj4FfNESRpj3Mz1e-_Ozz4Ctjx-_jwUDsXqFe1zMVe72AJ3AcW9u5FlTxhP4-_TpRQvJP3fqLYoYPpkcUmevDncBMUavk0xdaBs7Bao7d1Vc0URlxm9denhqOyjnAh4ohdYSIvAsMXlMS9XuJxFPJRjgG72Rop2CrHanLjpSxOePR4wxm-wgpj2s3eokguJzsX8aqShsqCZARfoKRAKMg16a5cb62xUpgwul19xf8FTXopC5BCwWk_p5_jRZaVAbEYfOuk3teqgugzIhGcunlvDNwJ3Ic5yLutkgeffCQq2sd-B-CotLr21lHthwPMdxkWFvQa953l99HNjy9Ro77rtee0ewSgmCJdre3_G40]--></g></svg>
