<svg xmlns="http://www.w3.org/2000/svg" xmlns:xlink="http://www.w3.org/1999/xlink" contentStyleType="text/css" data-diagram-type="CLASS" height="522px" preserveAspectRatio="none" style="width:948px;height:522px;background:#FFFFFF;" version="1.1" viewBox="0 0 948 522" width="948px" zoomAndPan="magnify"><defs/><g><!--class Valorable--><g class="entity" data-entity="Valorable" data-source-line="2" data-uid="ent0002" id="entity_Valorable"><rect fill="#F1F1F1" height="64.2969" rx="2.5" ry="2.5" style="stroke:#181818;stroke-width:0.5;" width="240.6074" x="16.5" y="418.5"/><ellipse cx="99.3857" cy="434.5" fill="#B4A7E5" rx="11" ry="11" style="stroke:#181818;stroke-width:1;"/><path d="M95.3076,430.2656 L95.3076,428.1094 L102.6982,428.1094 L102.6982,430.2656 L100.2295,430.2656 L100.2295,438.3438 L102.6982,438.3438 L102.6982,440.5 L95.3076,440.5 L95.3076,438.3438 L97.7764,438.3438 L97.7764,430.2656 L95.3076,430.2656 Z " fill="#000000"/><text fill="#000000" font-family="sans-serif" font-size="14" font-style="italic" lengthAdjust="spacing" textLength="66.3359" x="119.8857" y="439.3467">Valorable</text><line style="stroke:#181818;stroke-width:0.5;" x1="17.5" x2="256.1074" y1="450.5" y2="450.5"/><line style="stroke:#181818;stroke-width:0.5;" x1="17.5" x2="256.1074" y1="458.5" y2="458.5"/><ellipse cx="27.5" cy="472.1484" fill="#84BE84" rx="3" ry="3" style="stroke:#038048;stroke-width:1;"/><text fill="#000000" font-family="sans-serif" font-size="14" lengthAdjust="spacing" textLength="214.6074" x="36.5" y="475.4951">calcularDepreciacion(): double</text></g><!--class Vehiculo--><g class="entity" data-entity="Vehiculo" data-source-line="7" data-uid="ent0003" id="entity_Vehiculo"><rect fill="#F1F1F1" height="178.375" rx="2.5" ry="2.5" style="stroke:#181818;stroke-width:0.5;" width="240.6074" x="160.5" y="148"/><ellipse cx="246.5645" cy="164" fill="#A9DCDF" rx="11" ry="11" style="stroke:#181818;stroke-width:1;"/><path d="M246.6738,159.3438 L245.5176,164.4219 L247.8457,164.4219 L246.6738,159.3438 Z M245.1895,157.1094 L248.1738,157.1094 L251.5332,169.5 L249.0801,169.5 L248.3145,166.4375 L245.0332,166.4375 L244.2832,169.5 L241.8457,169.5 L245.1895,157.1094 Z " fill="#000000"/><text fill="#000000" font-family="sans-serif" font-size="14" font-style="italic" lengthAdjust="spacing" textLength="59.9785" x="267.0645" y="168.8467">Vehiculo</text><line style="stroke:#181818;stroke-width:0.5;" x1="161.5" x2="400.1074" y1="180" y2="180"/><rect fill="none" height="6" style="stroke:#C82930;stroke-width:1;" width="6" x="168.5" y="190.6484"/><text fill="#000000" font-family="sans-serif" font-size="14" lengthAdjust="spacing" textLength="117.3389" x="180.5" y="196.9951">matricula: String</text><rect fill="none" height="6" style="stroke:#C82930;stroke-width:1;" width="6" x="168.5" y="206.9453"/><text fill="#000000" font-family="sans-serif" font-size="14" lengthAdjust="spacing" textLength="95.1973" x="180.5" y="213.292">marca: String</text><rect fill="none" height="6" style="stroke:#C82930;stroke-width:1;" width="6" x="168.5" y="223.2422"/><text fill="#000000" font-family="sans-serif" font-size="14" lengthAdjust="spacing" textLength="103.1064" x="180.5" y="229.5889">modelo: String</text><rect fill="none" height="6" style="stroke:#C82930;stroke-width:1;" width="6" x="168.5" y="239.5391"/><text fill="#000000" font-family="sans-serif" font-size="14" lengthAdjust="spacing" textLength="135.9121" x="180.5" y="245.8857">kilometraje: double</text><rect fill="none" height="6" style="stroke:#C82930;stroke-width:1;" width="6" x="168.5" y="255.8359"/><text fill="#000000" font-family="sans-serif" font-size="14" lengthAdjust="spacing" textLength="100.29" x="180.5" y="262.1826">precio: double</text><rect fill="none" height="6" style="stroke:#C82930;stroke-width:1;" width="6" x="168.5" y="272.1328"/><text fill="#000000" font-family="sans-serif" font-size="14" lengthAdjust="spacing" textLength="211.709" x="180.5" y="278.4795">fechaMatriculacion: LocalDate</text><rect fill="none" height="6" style="stroke:#C82930;stroke-width:1;" width="6" x="168.5" y="288.4297"/><text fill="#000000" font-family="sans-serif" font-size="14" lengthAdjust="spacing" textLength="142.167" x="180.5" y="294.7764">propietario: Persona</text><line style="stroke:#181818;stroke-width:0.5;" x1="161.5" x2="400.1074" y1="302.0781" y2="302.0781"/><ellipse cx="171.5" cy="315.7266" fill="#84BE84" rx="3" ry="3" style="stroke:#038048;stroke-width:1;"/><text fill="#000000" font-family="sans-serif" font-size="14" lengthAdjust="spacing" textLength="214.6074" x="180.5" y="319.0732">calcularDepreciacion(): double</text></g><!--class Coche--><g class="entity" data-entity="Coche" data-source-line="18" data-uid="ent0004" id="entity_Coche"><rect fill="#F1F1F1" height="80.5938" rx="2.5" ry="2.5" style="stroke:#181818;stroke-width:0.5;" width="137.8496" x="7" y="7"/><ellipse cx="50.0463" cy="23" fill="#ADD1B2" rx="11" ry="11" style="stroke:#181818;stroke-width:1;"/><path d="M53.0151,28.6406 Q52.437,28.9375 51.7963,29.0781 Q51.1557,29.2344 50.4526,29.2344 Q47.9526,29.2344 46.6245,27.5938 Q45.312,25.9375 45.312,22.8125 Q45.312,19.6875 46.6245,18.0313 Q47.9526,16.375 50.4526,16.375 Q51.1557,16.375 51.7963,16.5313 Q52.4526,16.6875 53.0151,16.9844 L53.0151,19.7031 Q52.3901,19.125 51.7963,18.8594 Q51.2026,18.5781 50.5776,18.5781 Q49.2338,18.5781 48.5463,19.6563 Q47.8588,20.7188 47.8588,22.8125 Q47.8588,24.9063 48.5463,25.9844 Q49.2338,27.0469 50.5776,27.0469 Q51.2026,27.0469 51.7963,26.7813 Q52.3901,26.5 53.0151,25.9219 L53.0151,28.6406 Z " fill="#000000"/><text fill="#000000" font-family="sans-serif" font-size="14" lengthAdjust="spacing" textLength="43.5244" x="70.2789" y="27.8467">Coche</text><line style="stroke:#181818;stroke-width:0.5;" x1="8" x2="143.8496" y1="39" y2="39"/><rect fill="none" height="6" style="stroke:#C82930;stroke-width:1;" width="6" x="15" y="49.6484"/><text fill="#000000" font-family="sans-serif" font-size="14" lengthAdjust="spacing" textLength="111.8496" x="27" y="55.9951">numPuertas: int</text><rect fill="none" height="6" style="stroke:#C82930;stroke-width:1;" width="6" x="15" y="65.9453"/><text fill="#000000" font-family="sans-serif" font-size="14" lengthAdjust="spacing" textLength="109.416" x="27" y="72.292">tipo: TipoCoche</text><line style="stroke:#181818;stroke-width:0.5;" x1="8" x2="143.8496" y1="79.5938" y2="79.5938"/></g><!--class Moto--><g class="entity" data-entity="Moto" data-source-line="23" data-uid="ent0005" id="entity_Moto"><rect fill="#F1F1F1" height="80.5938" rx="2.5" ry="2.5" style="stroke:#181818;stroke-width:0.5;" width="126.5908" x="417.5" y="7"/><ellipse cx="459.4512" cy="23" fill="#ADD1B2" rx="11" ry="11" style="stroke:#181818;stroke-width:1;"/><path d="M462.42,28.6406 Q461.8418,28.9375 461.2012,29.0781 Q460.5606,29.2344 459.8575,29.2344 Q457.3575,29.2344 456.0293,27.5938 Q454.7168,25.9375 454.7168,22.8125 Q454.7168,19.6875 456.0293,18.0313 Q457.3575,16.375 459.8575,16.375 Q460.5606,16.375 461.2012,16.5313 Q461.8575,16.6875 462.42,16.9844 L462.42,19.7031 Q461.795,19.125 461.2012,18.8594 Q460.6075,18.5781 459.9825,18.5781 Q458.6387,18.5781 457.9512,19.6563 Q457.2637,20.7188 457.2637,22.8125 Q457.2637,24.9063 457.9512,25.9844 Q458.6387,27.0469 459.9825,27.0469 Q460.6075,27.0469 461.2012,26.7813 Q461.795,26.5 462.42,25.9219 L462.42,28.6406 Z " fill="#000000"/><text fill="#000000" font-family="sans-serif" font-size="14" lengthAdjust="spacing" textLength="34.6992" x="479.4404" y="27.8467">Moto</text><line style="stroke:#181818;stroke-width:0.5;" x1="418.5" x2="543.0908" y1="39" y2="39"/><rect fill="none" height="6" style="stroke:#C82930;stroke-width:1;" width="6" x="425.5" y="49.6484"/><text fill="#000000" font-family="sans-serif" font-size="14" lengthAdjust="spacing" textLength="96.3457" x="437.5" y="55.9951">cilindrada: int</text><rect fill="none" height="6" style="stroke:#C82930;stroke-width:1;" width="6" x="425.5" y="65.9453"/><text fill="#000000" font-family="sans-serif" font-size="14" lengthAdjust="spacing" textLength="100.5908" x="437.5" y="72.292">tipo: TipoMoto</text><line style="stroke:#181818;stroke-width:0.5;" x1="418.5" x2="543.0908" y1="79.5938" y2="79.5938"/></g><!--class Camion--><g class="entity" data-entity="Camion" data-source-line="28" data-uid="ent0006" id="entity_Camion"><rect fill="#F1F1F1" height="80.5938" rx="2.5" ry="2.5" style="stroke:#181818;stroke-width:0.5;" width="196.1396" x="183" y="7"/><ellipse cx="250.1597" cy="23" fill="#ADD1B2" rx="11" ry="11" style="stroke:#181818;stroke-width:1;"/><path d="M253.1284,28.6406 Q252.5503,28.9375 251.9097,29.0781 Q251.269,29.2344 250.5659,29.2344 Q248.0659,29.2344 246.7378,27.5938 Q245.4253,25.9375 245.4253,22.8125 Q245.4253,19.6875 246.7378,18.0313 Q248.0659,16.375 250.5659,16.375 Q251.269,16.375 251.9097,16.5313 Q252.5659,16.6875 253.1284,16.9844 L253.1284,19.7031 Q252.5034,19.125 251.9097,18.8594 Q251.3159,18.5781 250.6909,18.5781 Q249.3472,18.5781 248.6597,19.6563 Q247.9722,20.7188 247.9722,22.8125 Q247.9722,24.9063 248.6597,25.9844 Q249.3472,27.0469 250.6909,27.0469 Q251.3159,27.0469 251.9097,26.7813 Q252.5034,26.5 253.1284,25.9219 L253.1284,28.6406 Z " fill="#000000"/><text fill="#000000" font-family="sans-serif" font-size="14" lengthAdjust="spacing" textLength="53.3203" x="270.6597" y="27.8467">Camion</text><line style="stroke:#181818;stroke-width:0.5;" x1="184" x2="378.1396" y1="39" y2="39"/><rect fill="none" height="6" style="stroke:#C82930;stroke-width:1;" width="6" x="191" y="49.6484"/><text fill="#000000" font-family="sans-serif" font-size="14" lengthAdjust="spacing" textLength="170.1396" x="203" y="55.9951">capacidadCarga: double</text><rect fill="none" height="6" style="stroke:#C82930;stroke-width:1;" width="6" x="191" y="65.9453"/><text fill="#000000" font-family="sans-serif" font-size="14" lengthAdjust="spacing" textLength="87.4453" x="203" y="72.292">numEjes: int</text><line style="stroke:#181818;stroke-width:0.5;" x1="184" x2="378.1396" y1="79.5938" y2="79.5938"/></g><!--class Persona--><g class="entity" data-entity="Persona" data-source-line="33" data-uid="ent0007" id="entity_Persona"><rect fill="#F1F1F1" height="129.4844" rx="2.5" ry="2.5" style="stroke:#181818;stroke-width:0.5;" width="264.9912" x="292.5" y="386"/><ellipse cx="392.6841" cy="402" fill="#ADD1B2" rx="11" ry="11" style="stroke:#181818;stroke-width:1;"/><path d="M395.6528,407.6406 Q395.0747,407.9375 394.4341,408.0781 Q393.7935,408.2344 393.0903,408.2344 Q390.5903,408.2344 389.2622,406.5938 Q387.9497,404.9375 387.9497,401.8125 Q387.9497,398.6875 389.2622,397.0313 Q390.5903,395.375 393.0903,395.375 Q393.7935,395.375 394.4341,395.5313 Q395.0903,395.6875 395.6528,395.9844 L395.6528,398.7031 Q395.0278,398.125 394.4341,397.8594 Q393.8403,397.5781 393.2153,397.5781 Q391.8716,397.5781 391.1841,398.6563 Q390.4966,399.7188 390.4966,401.8125 Q390.4966,403.9063 391.1841,404.9844 Q391.8716,406.0469 393.2153,406.0469 Q393.8403,406.0469 394.4341,405.7813 Q395.0278,405.5 395.6528,404.9219 L395.6528,407.6406 Z " fill="#000000"/><text fill="#000000" font-family="sans-serif" font-size="14" lengthAdjust="spacing" textLength="56.123" x="413.1841" y="406.8467">Persona</text><line style="stroke:#181818;stroke-width:0.5;" x1="293.5" x2="556.4912" y1="418" y2="418"/><rect fill="none" height="6" style="stroke:#C82930;stroke-width:1;" width="6" x="300.5" y="428.6484"/><text fill="#000000" font-family="sans-serif" font-size="14" lengthAdjust="spacing" textLength="105.2803" x="312.5" y="434.9951">nombre: String</text><rect fill="none" height="6" style="stroke:#C82930;stroke-width:1;" width="6" x="300.5" y="444.9453"/><text fill="#000000" font-family="sans-serif" font-size="14" lengthAdjust="spacing" textLength="113.4424" x="312.5" y="451.292">apellidos: String</text><rect fill="none" height="6" style="stroke:#C82930;stroke-width:1;" width="6" x="300.5" y="461.2422"/><text fill="#000000" font-family="sans-serif" font-size="14" lengthAdjust="spacing" textLength="72.5977" x="312.5" y="467.5889">dni: String</text><rect fill="none" height="6" style="stroke:#C82930;stroke-width:1;" width="6" x="300.5" y="477.5391"/><text fill="#000000" font-family="sans-serif" font-size="14" lengthAdjust="spacing" textLength="137.0332" x="312.5" y="483.8857">anioNacimiento: int</text><rect fill="none" height="6" style="stroke:#C82930;stroke-width:1;" width="6" x="300.5" y="493.8359"/><text fill="#000000" font-family="sans-serif" font-size="14" lengthAdjust="spacing" textLength="238.9912" x="312.5" y="500.1826">fechaCaducidadCarnet: LocalDate</text><line style="stroke:#181818;stroke-width:0.5;" x1="293.5" x2="556.4912" y1="507.4844" y2="507.4844"/></g><!--class RiesgoUtils--><g class="entity" data-entity="RiesgoUtils" data-source-line="41" data-uid="ent0008" id="entity_RiesgoUtils"><rect fill="#F1F1F1" height="64.2969" rx="2.5" ry="2.5" style="stroke:#181818;stroke-width:0.5;" width="361.9385" x="580" y="15.5"/><ellipse cx="717.8262" cy="31.5" fill="#ADD1B2" rx="11" ry="11" style="stroke:#181818;stroke-width:1;"/><path d="M720.7949,37.1406 Q720.2168,37.4375 719.5762,37.5781 Q718.9355,37.7344 718.2324,37.7344 Q715.7324,37.7344 714.4043,36.0938 Q713.0918,34.4375 713.0918,31.3125 Q713.0918,28.1875 714.4043,26.5313 Q715.7324,24.875 718.2324,24.875 Q718.9355,24.875 719.5762,25.0313 Q720.2324,25.1875 720.7949,25.4844 L720.7949,28.2031 Q720.1699,27.625 719.5762,27.3594 Q718.9824,27.0781 718.3574,27.0781 Q717.0137,27.0781 716.3262,28.1563 Q715.6387,29.2188 715.6387,31.3125 Q715.6387,33.4063 716.3262,34.4844 Q717.0137,35.5469 718.3574,35.5469 Q718.9824,35.5469 719.5762,35.2813 Q720.1699,35 720.7949,34.4219 L720.7949,37.1406 Z " fill="#000000"/><text fill="#000000" font-family="sans-serif" font-size="14" lengthAdjust="spacing" textLength="77.7861" x="738.3262" y="36.3467">RiesgoUtils</text><line style="stroke:#181818;stroke-width:0.5;" x1="581" x2="940.9385" y1="47.5" y2="47.5"/><line style="stroke:#181818;stroke-width:0.5;" x1="581" x2="940.9385" y1="55.5" y2="55.5"/><ellipse cx="591" cy="69.1484" fill="#84BE84" rx="3" ry="3" style="stroke:#038048;stroke-width:1;"/><text fill="#000000" font-family="sans-serif" font-size="14" lengthAdjust="spacing" textLength="335.9385" x="600" y="72.4951">calcularNivelRiesgo(p: Persona, v: Vehiculo): int</text></g><!--class TipoCoche--><g class="entity" data-entity="TipoCoche" data-source-line="45" data-uid="ent0009" id="entity_TipoCoche"><rect fill="#F1F1F1" height="96.8906" rx="2.5" ry="2.5" style="stroke:#181818;stroke-width:0.5;" width="105.418" x="20.5" y="188.5"/><ellipse cx="35.5" cy="204.5" fill="#EB937F" rx="11" ry="11" style="stroke:#181818;stroke-width:1;"/><path d="M39.6094,210.5 L31.8906,210.5 L31.8906,198.1094 L39.6094,198.1094 L39.6094,200.2656 L34.3438,200.2656 L34.3438,202.9375 L39.1094,202.9375 L39.1094,205.0938 L34.3438,205.0938 L34.3438,208.3438 L39.6094,208.3438 L39.6094,210.5 Z " fill="#000000"/><text fill="#000000" font-family="sans-serif" font-size="14" lengthAdjust="spacing" textLength="73.418" x="49.5" y="209.3467">TipoCoche</text><line style="stroke:#181818;stroke-width:0.5;" x1="21.5" x2="124.918" y1="220.5" y2="220.5"/><text fill="#000000" font-family="sans-serif" font-size="14" lengthAdjust="spacing" textLength="48.5625" x="26.5" y="237.4951">SEDAN</text><text fill="#000000" font-family="sans-serif" font-size="14" lengthAdjust="spacing" textLength="28.7109" x="26.5" y="253.792">SUV</text><text fill="#000000" font-family="sans-serif" font-size="14" lengthAdjust="spacing" textLength="82.0928" x="26.5" y="270.0889">DEPORTIVO</text><line style="stroke:#181818;stroke-width:0.5;" x1="21.5" x2="124.918" y1="277.3906" y2="277.3906"/></g><!--class TipoMoto--><g class="entity" data-entity="TipoMoto" data-source-line="51" data-uid="ent0010" id="entity_TipoMoto"><rect fill="#F1F1F1" height="80.5938" rx="2.5" ry="2.5" style="stroke:#181818;stroke-width:0.5;" width="96.5928" x="436.5" y="196.5"/><ellipse cx="451.5" cy="212.5" fill="#EB937F" rx="11" ry="11" style="stroke:#181818;stroke-width:1;"/><path d="M455.6094,218.5 L447.8906,218.5 L447.8906,206.1094 L455.6094,206.1094 L455.6094,208.2656 L450.3438,208.2656 L450.3438,210.9375 L455.1094,210.9375 L455.1094,213.0938 L450.3438,213.0938 L450.3438,216.3438 L455.6094,216.3438 L455.6094,218.5 Z " fill="#000000"/><text fill="#000000" font-family="sans-serif" font-size="14" lengthAdjust="spacing" textLength="64.5928" x="465.5" y="217.3467">TipoMoto</text><line style="stroke:#181818;stroke-width:0.5;" x1="437.5" x2="532.0928" y1="228.5" y2="228.5"/><text fill="#000000" font-family="sans-serif" font-size="14" lengthAdjust="spacing" textLength="67.8262" x="442.5" y="245.4951">SCOOTER</text><text fill="#000000" font-family="sans-serif" font-size="14" lengthAdjust="spacing" textLength="80.6504" x="442.5" y="261.792">DEPORTIVA</text><line style="stroke:#181818;stroke-width:0.5;" x1="437.5" x2="532.0928" y1="269.0938" y2="269.0938"/></g><!--link Vehiculo to Valorable--><g class="link" data-entity-1="Vehiculo" data-entity-2="Valorable" data-source-line="57" data-uid="lnk11" id="link_Vehiculo_Valorable"><path codeLine="57" d="M220.97,326.16 C198.67,358.92 184.9194,379.1107 168.3494,403.4507" fill="none" id="Vehiculo-to-Valorable" style="stroke:#181818;stroke-width:1;stroke-dasharray:7.0,7.0;"/><polygon fill="none" points="158.22,418.33,173.3092,406.8271,163.3897,400.0742,158.22,418.33" style="stroke:#181818;stroke-width:1;"/></g><!--link Coche to Vehiculo--><g class="link" data-entity-1="Coche" data-entity-2="Vehiculo" data-source-line="58" data-uid="lnk12" id="link_Coche_Vehiculo"><path codeLine="58" d="M119.48,88.26 C138.52,105.68 148.3989,114.7104 171.1689,135.5404" fill="none" id="Coche-to-Vehiculo" style="stroke:#181818;stroke-width:1;"/><polygon fill="none" points="184.45,147.69,175.2187,131.1134,167.119,139.9675,184.45,147.69" style="stroke:#181818;stroke-width:1;"/></g><!--link Moto to Vehiculo--><g class="link" data-entity-1="Moto" data-entity-2="Vehiculo" data-source-line="59" data-uid="lnk13" id="link_Moto_Vehiculo"><path codeLine="59" d="M438.59,88.26 C420.01,105.68 410.5393,114.5465 388.3293,135.3765" fill="none" id="Moto-to-Vehiculo" style="stroke:#181818;stroke-width:1;"/><polygon fill="none" points="375.2,147.69,392.4338,139.7529,384.2248,131.0001,375.2,147.69" style="stroke:#181818;stroke-width:1;"/></g><!--link Camion to Vehiculo--><g class="link" data-entity-1="Camion" data-entity-2="Vehiculo" data-source-line="60" data-uid="lnk14" id="link_Camion_Vehiculo"><path codeLine="60" d="M281,88.26 C281,105.68 281,108.86 281,129.69" fill="none" id="Camion-to-Vehiculo" style="stroke:#181818;stroke-width:1;"/><polygon fill="none" points="281,147.69,287,129.69,275,129.69,281,147.69" style="stroke:#181818;stroke-width:1;"/></g><!--reverse link Vehiculo to Persona--><g class="link" data-entity-1="Vehiculo" data-entity-2="Persona" data-source-line="61" data-uid="lnk15" id="link_Vehiculo_Persona"><path codeLine="61" d="M347.7819,336.0803 C361.4419,356.1503 368.94,367.16 381.74,385.96" fill="none" id="Vehiculo-backto-Persona" style="stroke:#181818;stroke-width:1;"/><polygon fill="none" points="341.03,326.16,341.0992,333.3708,347.7819,336.0803,347.7127,328.8695,341.03,326.16" style="stroke:#181818;stroke-width:1;"/></g><!--link Coche to TipoCoche--><g class="link" data-entity-1="Coche" data-entity-2="TipoCoche" data-source-line="62" data-uid="lnk16" id="link_Coche_TipoCoche"><path codeLine="62" d="M75.36,88.26 C74.9,117.5 74.3569,151.3708 73.8569,182.3208" fill="none" id="Coche-to-TipoCoche" style="stroke:#181818;stroke-width:1;"/><polygon fill="#181818" points="73.76,188.32,77.9049,179.3858,73.8408,183.3207,69.9059,179.2566,73.76,188.32" style="stroke:#181818;stroke-width:1;"/></g><!--link Moto to TipoMoto--><g class="link" data-entity-1="Moto" data-entity-2="TipoMoto" data-source-line="63" data-uid="lnk17" id="link_Moto_TipoMoto"><path codeLine="63" d="M481.85,88.26 C482.53,120.08 483.3417,158.4914 484.0217,190.2914" fill="none" id="Moto-to-TipoMoto" style="stroke:#181818;stroke-width:1;"/><polygon fill="#181818" points="484.15,196.29,487.9567,187.2065,484.0431,191.2911,479.9585,187.3776,484.15,196.29" style="stroke:#181818;stroke-width:1;"/></g><!--SRC=[ZLFBRi8m4BpdAtnhKHi-8198LU20L1u2odsn5t3hU2FRuTBst-ianWbf3yqXiSUxuvdTpGERJ2PieHsQ4t2qzJQHjoqxW283HuNiCs7-UUAWUAN0pB0qo2LmIVfnb351bOzAlfFaeM7C5TZ01aVh3737kCSiE-15UWeAZ2ahm9aQWOpj_4gV8sxuBum4AXg07r9HWVwETun2sfD68mt04_8BB6-NrWOozahUs0nSbqYbH0UcpjwWiQJXlmLeRUR4BnWzwghOL6WSs8pvwWRKoTBJx_sxYUwIb-Iw-d2ff1O61FoTMmVtxeN2A-gIeVGI1OWSp1a6bV2gvkyO94M6OBVJJiNHuA3cKA9IKf0Tu4BBOQIMjF8Q2edQKTz2quWSH7KJgD7rMn4LRINQCxqvgUnm3bVoYgezVonZgvxPDOk3Deh-q1lkoXseTlFPowfTlHsQxso-MM_tYyFwBgVNars-Nk_dsxlWbsxsjzYELPZ_EF3ZyTUq-wEILaIQrc08IPfBxg7Gq7imSbAQnlcy4Kvx8nK8fz723m00]--></g></svg>
